<svg xmlns="http://www.w3.org/2000/svg"><style>:root svg:not(:target){display:none}</style><svg viewBox="0 0 32 12" fill="none" id="arrow-icon-hover"><line y1="6" x2="26" y2="6" stroke="black" stroke-width="2"></line><path d="M32 6L25.25 11.1962L25.25 0.803848L32 6Z" fill="black"></path></svg><svg viewBox="0 0 24 12" fill="none" id="arrow-icon"><line y1="6" x2="18" y2="6" stroke="black" stroke-width="2"></line><path d="M24 6L17.25 11.1962L17.25 0.803848L24 6Z" fill="black"></path></svg><svg viewBox="0 0 268 112" fill="none" id="cat-pro"><path d="M246.236 11.5137C248.545 7.83987 251.614 4.70291 255.236 2.31371C257.236 0.913709 258.436 0.913708 259.636 3.51371C261.236 7.31371 262.636 11.3137 261.436 15.5137C261.218 16.226 261.177 16.9809 261.316 17.7128C261.456 18.4447 261.772 19.1315 262.236 19.7137C263.436 21.3137 264.436 22.9137 265.436 24.3137C266.797 26.0412 267.68 28.0963 267.996 30.2728C268.312 32.4492 268.05 34.6705 267.236 36.7137C266.502 38.6973 266.363 40.8522 266.836 42.9137C267.236 44.8937 267.236 46.9337 266.836 48.9137C266.675 50.3965 266.075 51.7975 265.113 52.9375C264.151 54.0775 262.871 54.9048 261.436 55.3137C258.878 55.8005 256.595 57.2275 255.036 59.3137C254.848 59.6209 254.583 59.8743 254.267 60.0495C253.952 60.2246 253.597 60.3156 253.236 60.3137C250.836 60.7137 244.836 55.3137 244.836 52.9137V51.7137C245.036 44.5137 244.636 43.9137 238.036 40.9137C236.655 40.4265 235.417 39.6015 234.436 38.5137C233.236 36.9137 231.636 37.1137 229.836 37.7137C228.036 38.3137 227.036 39.5137 227.236 41.5137C227.84 46.3554 228.04 51.2388 227.836 56.1137C227.85 56.6701 227.986 57.2165 228.236 57.7137C234.436 66.7137 236.836 77.3137 239.836 87.5137C242.236 95.3137 246.636 99.5137 254.636 100.114C255.917 100.216 257.187 100.416 258.436 100.714C260.08 100.978 261.607 101.729 262.819 102.87C264.031 104.011 264.873 105.489 265.236 107.114C266.636 111.314 265.836 112.314 261.636 112.314H248.636C246.953 112.399 245.303 111.825 244.036 110.714C242.012 109.005 239.713 107.653 237.236 106.714C234.499 105.703 232.129 103.891 230.436 101.514C228.094 98.2407 225.412 95.224 222.436 92.5137C216.836 86.7137 210.836 81.1137 205.636 75.1137C201.678 71.0253 199.395 65.6023 199.236 59.9137C199.236 58.1137 198.836 57.3137 196.836 58.1137C196.238 58.4937 195.546 58.7012 194.836 58.7137C189.236 58.7137 186.436 62.1137 184.436 67.1137C182.636 71.3137 180.236 75.3137 178.036 79.5137C176.789 82.1428 176.108 85.0046 176.036 87.9137C176.036 92.7137 177.236 94.3137 181.636 95.9137C184.436 96.9137 187.036 97.9137 188.436 100.714C190.036 103.914 189.636 104.714 186.236 104.914H172.636C171.852 104.991 171.064 104.821 170.382 104.426C169.7 104.031 169.16 103.432 168.836 102.714L165.236 96.7137C164.175 95.1482 163.496 93.3557 163.253 91.4801C163.01 89.6045 163.21 87.6981 163.836 85.9137C164.702 82.4407 164.77 78.8169 164.036 75.3137C163.532 72.8739 163.576 70.3527 164.164 67.9318C164.752 65.5108 165.869 63.2505 167.436 61.3137C168.636 59.9137 168.636 59.3137 166.636 58.9137C158.458 57.1765 150.53 54.4217 143.036 50.7137C142.983 50.7137 142.933 50.6926 142.895 50.6551C142.858 50.6176 142.836 50.5667 142.836 50.5137C136.436 48.1137 135.236 48.5137 133.436 55.1137C131.836 60.7137 130.236 66.3137 129.036 72.1137C127.636 78.5137 129.236 84.5137 131.236 90.5137C132.036 92.9137 134.436 92.7137 136.236 93.3137C140.236 94.5137 143.636 96.1137 145.236 100.314C146.636 103.514 146.436 103.914 143.036 103.914C139.636 103.914 136.236 103.714 132.636 103.914C129.599 103.969 126.634 102.98 124.236 101.114C114.636 94.7137 111.836 84.9137 111.036 74.3137C110.636 67.7137 107.036 62.5137 102.836 57.5137C102.036 56.5137 101.236 56.1137 100.036 56.9137C95.7434 59.2808 91.2614 61.2877 86.6365 62.9137C76.985 66.3217 68.5157 72.4306 62.2365 80.5137C59.8918 83.4637 58.3732 86.9839 57.8365 90.7137C57.2365 94.3137 58.2365 95.9137 61.8365 96.9137C65.4365 97.9137 67.2365 99.9137 67.6365 103.714C67.8365 105.314 67.2365 106.114 65.6365 106.114H49.4365C48.9063 106.076 48.393 105.911 47.9403 105.632C47.4876 105.354 47.1089 104.97 46.8365 104.514C44.3242 101.403 42.9798 97.5116 43.0365 93.5137C42.9315 86.6036 43.5346 79.7009 44.8365 72.9137C45.1034 70.8811 45.8623 68.9443 47.0473 67.2714C48.2323 65.5984 49.8075 64.2399 51.6365 63.3137C63.4365 57.7137 69.6365 47.1137 75.2365 36.1137C76.4365 33.9137 75.4365 33.5137 73.4365 33.7137C67.8391 34.4908 62.5358 36.6947 58.0365 40.1137C52.1448 44.4114 46.5949 49.1589 41.4365 54.3137C35.9358 59.901 28.6418 63.3709 20.8365 64.1137C6.23646 64.9137 -0.56354 56.7137 0.0364599 43.5137C0.170585 39.0129 1.86775 34.6993 4.83646 31.3137C5.8685 29.9757 7.27593 28.9757 8.87899 28.4413C10.4821 27.907 12.208 27.8625 13.8365 28.3137C16.8365 29.1137 17.6365 30.7137 16.4365 33.7137C15.8365 34.9137 15.0365 35.9137 14.4365 37.1137C13.5737 38.3396 12.8995 39.6879 12.4365 41.1137C10.2365 47.1137 13.2365 51.3137 19.4365 51.9137C26.0365 52.5137 31.4365 49.7137 36.4365 45.7137C42.4603 40.8902 47.8379 35.311 52.4365 29.1137C55.875 24.5885 60.2046 20.8163 65.1581 18.03C70.1116 15.2436 75.5837 13.5024 81.2365 12.9137C85.8365 12.3137 89.8365 10.3137 94.2365 9.11371C102.465 6.60492 111.034 5.39042 119.636 5.51371C123.621 5.67964 127.59 4.9269 131.236 3.31371C141.036 -0.686291 151.236 -0.686292 161.436 1.31371C169.436 2.91371 177.436 4.91371 185.236 6.91371C189.878 7.77866 194.651 7.64229 199.236 6.51371C208.014 4.28878 216.992 2.94875 226.036 2.51371C231.961 2.22544 237.867 3.39278 243.236 5.91371C247.236 7.71371 247.236 7.71371 246.236 11.5137Z" fill="black"></path></svg><svg viewBox="0 0 140 194" fill="none" id="cat-slim"><path d="M109.68 0H108.92C107.636 0.725875 106.614 1.83883 106 3.18C104.875 5.34423 104.009 7.63331 103.42 10C103.294 10.7116 102.934 11.3611 102.398 11.8462C101.863 12.3313 101.181 12.6246 100.46 12.68C98.2558 13.06 96.1675 13.9386 94.3546 15.2489C92.5418 16.5591 91.0523 18.2663 90 20.24C88.5532 22.8026 87.3158 25.478 86.3 28.24C83.46 35.6 81.28 43.2 78.6 50.62C77.34 54 77.28 54 73.48 54C68.94 54 69.26 53.3 69.2 58.3C69.2 59.88 69.68 60.68 71.36 60.6C71.88 60.6 72.66 60.34 72.86 61.02C73.06 61.7 72.38 62 71.98 62.4C69.6086 64.8073 66.6075 66.4984 63.32 67.28C59.52 68.3 55.64 69.1 51.94 70.34C42.44 73.52 33.66 77.96 26.82 85.48C22.8206 90.1507 19.6177 95.4483 17.34 101.16C10 118.44 6.44 136.64 3.68 155.02C2.38 163.64 1.46 172.3 0.76 181.02C0.4 185.3 0 189.64 0 194H66.66C66.7707 193.12 66.6102 192.227 66.2 191.44C65.5589 189.844 64.5171 188.441 63.1753 187.365C61.8335 186.29 60.237 185.578 58.54 185.3C57.14 184.98 56.98 184.56 57.84 183.46C59.2427 181.588 60.318 179.492 61.02 177.26C64.28 167.64 65.54 157.6 67.12 147.66C68.0125 140.068 70.3477 132.716 74 126C76.8488 121.057 80.6486 116.727 85.18 113.26C86.84 112 86.9 112 87.18 114.14C87.38 115.56 87.42 117.02 87.52 118.46C88.1202 127.909 87.9998 137.39 87.16 146.82C86.4048 154.13 86.3044 161.492 86.86 168.82C87.6551 177.327 89.1739 185.751 91.4 194H118C117.653 191.835 116.656 189.826 115.142 188.241C113.627 186.655 111.667 185.567 109.52 185.12C107.013 184.722 104.45 184.858 102 185.52C100.8 185.8 100.3 185.52 100.2 184.22C99.3725 173.632 100.046 162.98 102.2 152.58C104.868 140.574 106.91 128.438 108.32 116.22C108.845 111.286 110.398 106.517 112.88 102.22C115.26 97.98 117.34 93.58 119.68 89.32C120.609 87.771 121.168 86.0286 121.314 84.2282C121.46 82.4279 121.188 80.6182 120.52 78.94C119.98 77.52 119.46 76.08 118.8 74.72C116.8 70.82 114.8 66.96 112.96 63.02C111.98 61.02 112.2 60.78 114.38 60.72C117.64 60.72 117.64 60.72 117.7 57.44C117.7 57 117.7 56.56 117.7 56.12C117.7 54.74 117.18 53.98 115.7 54.12C114.7 54.12 113.7 54.12 112.66 54.12C111.28 54.12 110.88 53.54 111.22 52.12C111.895 49.8116 113.222 47.7473 115.042 46.1755C116.862 44.6037 119.098 43.5912 121.48 43.26C125.911 42.8758 130.376 43.1657 134.72 44.12C135.221 44.2779 135.765 44.2322 136.232 43.9927C136.7 43.7531 137.055 43.3391 137.22 42.84C138.02 40.84 138.9 38.84 139.8 36.84C140.004 36.4852 140.094 36.0763 140.058 35.6686C140.023 35.2608 139.863 34.8739 139.6 34.56C133.2 26.44 126.26 18.86 116.8 14C116.343 13.8033 115.942 13.4952 115.635 13.1039C115.328 12.7127 115.123 12.2506 115.04 11.76C114.505 8.90102 113.653 6.11051 112.5 3.44C111.959 2.01723 110.969 0.809563 109.68 0V0Z" fill="black"></path></svg><svg viewBox="0 0 24 19" fill="none" id="checkbox"><path d="M9 15.499L1.4 6.90101L0 8.48485L9 18.6667L24 1.69697L22.6 0L9 15.499Z" fill="#68B738"></path></svg><svg viewBox="0 0 27 35" fill="none" id="htmlacademy-logo"><path d="M13.6426 0.515754L13.5 0.5L0 1.90733V26.5129L13.5 34.5L27 26.5129V1.90733L13.6426 0.515754ZM25.2344 25.5151L13.5 32.4573L1.76561 25.5151V15.4293L13.4507 22.3451L13.4701 23.5984L5.45351 18.8548L5.44295 20.0801L13.4894 24.8885L13.5088 26.175L5.46408 21.4174L5.45351 22.6427L13.5 27.4511L21.6239 22.6182V21.3929V17.409L25.2432 15.2595L25.2344 25.5151ZM25.2344 13.9519L22.0147 15.8319L20.5325 16.7071L13.4666 12.5201L13.456 13.7454L19.4957 17.318L19.4429 17.3495L19.3126 17.4247L18.4536 17.9166L13.4666 14.9689L13.456 16.1942L17.3921 18.5222L16.4591 19.1314L16.438 19.1436L13.4666 17.402L13.456 18.6273L15.4029 19.7615L13.4155 20.9483L1.7973 14.0762L13.4349 7.11831L25.2344 13.9519ZM25.2344 12.7266L13.4401 5.81075L1.76561 12.7196V3.4897L13.5 2.26442L25.2344 3.4897V12.7266Z" fill="#666666"></path></svg><svg viewBox="0 0 18 14" fill="none" id="icon-email"><path d="M0.5 5.5V13.5H17.5V5.5M0.5 0.5H17.5V2.5L9 8.5L0.5 2.5V0.5Z" stroke="black" stroke-linecap="round" stroke-linejoin="round"></path></svg><svg viewBox="0 0 25 30" fill="none" id="icon-food"><path fill-rule="evenodd" clip-rule="evenodd" d="M18.6173 0.0761497C18.991 -0.0786313 19.4211 0.00692445 19.7071 0.292922C20.6156 1.20142 21.8038 3.17065 22.7659 6.21082C23.7373 9.28039 24.5 13.5081 24.5 19C24.5 19.5523 24.0523 20 23.5 20H20V29C20 29.5523 19.5523 30 19 30C18.4477 30 18 29.5523 18 29V1.00003C18 0.595567 18.2436 0.230931 18.6173 0.0761497ZM20 18H22.4912C22.4053 13.1836 21.7051 9.48754 20.8591 6.81424C20.5807 5.93457 20.2885 5.1715 20 4.51895V18Z" fill="white"></path><path fill-rule="evenodd" clip-rule="evenodd" d="M6 0C6.55228 0 7 0.447715 7 1V29C7 29.5523 6.55228 30 6 30C5.44772 30 5 29.5523 5 29V1C5 0.447715 5.44772 0 6 0Z" fill="white"></path><path fill-rule="evenodd" clip-rule="evenodd" d="M1.5 0C2.05228 0 2.5 0.447715 2.5 1V6.5C2.5 7.05686 2.69203 7.81518 3.20088 8.41656C3.68001 8.98281 4.51446 9.5 5.99993 9.5C6.55221 9.5 6.99993 9.94771 6.99993 10.5C6.99993 11.0523 6.55221 11.5 5.99993 11.5C3.98547 11.5 2.56995 10.7672 1.6741 9.70844C0.807973 8.68482 0.5 7.44314 0.5 6.5V1C0.5 0.447715 0.947715 0 1.5 0Z" fill="white"></path><path fill-rule="evenodd" clip-rule="evenodd" d="M10.5 0C9.94772 0 9.5 0.447715 9.5 1V6.5C9.5 7.05686 9.30797 7.81518 8.79912 8.41656C8.31999 8.98281 7.4854 9.5 5.99993 9.5C5.44765 9.5 5.00007 9.94771 5.00007 10.5C5.00007 11.0523 5.44765 11.5 5.99993 11.5C8.01439 11.5 9.43005 10.7672 10.3259 9.70844C11.192 8.68482 11.5 7.44314 11.5 6.5V1C11.5 0.447715 11.0523 0 10.5 0Z" fill="white"></path></svg><svg viewBox="0 0 58 62" fill="none" id="icon-gift"><path d="M54.0156 28.7127H4.03096C2.27657 28.7127 0.849411 27.2951 0.849411 25.5524V16.0842C0.849411 14.3415 2.27657 12.9233 4.03096 12.9233H54.0149C55.7687 12.9233 57.1953 14.3415 57.1953 16.0842V25.553C57.1959 27.2951 55.7693 28.7127 54.0156 28.7127ZM4.03096 15.3455C3.62755 15.3455 3.28691 15.684 3.28691 16.0842V25.553C3.28691 25.9599 3.62085 26.2912 4.03096 26.2912H54.0149C54.4244 26.2912 54.7578 25.9599 54.7578 25.553V16.0842C54.7578 15.6834 54.4171 15.3455 54.0149 15.3455H4.03096Z" fill="white"></path><path d="M47.0447 61.1488H10.999C7.62182 61.1488 4.87415 58.4191 4.87415 55.0626V27.5016C4.87415 26.8331 5.42015 26.2905 6.0929 26.2905C6.76565 26.2905 7.31165 26.8331 7.31165 27.5016V55.0626C7.31165 57.0833 8.9661 58.7267 10.999 58.7267H47.0447C49.077 58.7267 50.7308 57.0833 50.7308 55.0626V27.5016C50.7308 26.8331 51.2768 26.2905 51.9496 26.2905C52.6223 26.2905 53.1683 26.8331 53.1683 27.5016V55.0626C53.1683 58.4191 50.4213 61.1488 47.0447 61.1488Z" fill="white"></path><path d="M13.8113 15.3414C9.99661 13.2874 8.57311 8.53272 10.6383 4.74145C12.7022 0.952006 17.4864 -0.463133 21.303 1.58721C27.117 4.71662 30.2565 13.4472 30.3869 13.8172L28.0877 14.6208C28.0585 14.5384 25.1256 6.39941 20.1433 3.71749C17.5078 2.30175 14.2062 3.27908 12.7821 5.89439C11.3567 8.51213 12.339 11.7941 14.9734 13.2117L13.8113 15.3414Z" fill="white"></path><path d="M44.2313 15.3413L43.071 13.2111C44.3477 12.5238 45.2782 11.3848 45.6926 10.0035C46.1063 8.62171 45.9534 7.16237 45.2617 5.89498C44.5719 4.62638 43.4263 3.70233 42.0363 3.29117C40.6457 2.88001 39.1783 3.0314 37.9023 3.71747C32.9201 6.39878 29.9871 14.5378 29.9579 14.6202L27.6587 13.8166C27.7891 13.4466 30.928 4.716 36.7421 1.58719C38.5897 0.592902 40.7182 0.373698 42.7316 0.969546C44.7468 1.56479 46.4061 2.90484 47.4061 4.74143C48.4073 6.57742 48.6285 8.69135 48.0289 10.6939C47.4287 12.6958 46.0801 14.3458 44.2313 15.3413Z" fill="white"></path><path d="M29.0225 61.1488C28.3498 61.1488 27.8038 60.6069 27.8038 59.9378V27.5016C27.8038 26.8331 28.3498 26.2905 29.0225 26.2905C29.6953 26.2905 30.2413 26.8331 30.2413 27.5016V59.9372C30.2413 60.6069 29.6959 61.1488 29.0225 61.1488Z" fill="white"></path><path d="M51.9496 44.9314H6.0929C5.42015 44.9314 4.87415 44.3889 4.87415 43.7204C4.87415 43.0518 5.42015 42.5093 6.0929 42.5093H51.9496C52.6223 42.5093 53.1683 43.0518 53.1683 43.7204C53.1683 44.3889 52.6229 44.9314 51.9496 44.9314Z" fill="white"></path></svg><svg viewBox="0 0 26 28" fill="none" id="icon-leaf"><path d="M25.3438 0.767C25.2434 0.317 24.8647 0 24.4325 0C24.4306 0 24.4288 0 24.4269 0C19.4891 0.033 7.48156 0.916 2.63375 8.38C0.115624 12.258 -0.100938 17.293 1.98969 23.345C2.00562 23.392 2.03844 23.424 2.06 23.467C1.31281 25.44 1.02312 26.753 1.01562 26.79C0.906875 27.33 1.23031 27.862 1.73656 27.978C1.80219 27.993 1.86781 28 1.93344 28C2.36562 28 2.75469 27.679 2.84937 27.21C2.86906 27.108 5.25781 16.837 13.7028 10.832C14.1341 10.526 14.2503 9.905 13.9625 9.445C13.6747 8.985 13.0934 8.86 12.6622 9.168C7.87344 12.573 4.92406 17.176 3.18969 20.824C1.94844 16.246 2.27375 12.447 4.17594 9.519C7.91937 3.755 16.7984 2.365 22.1581 2.071C21.005 3.872 19.745 7.174 19.745 13C19.745 16.12 18.9153 18.522 17.2803 20.14C14.6591 22.731 10.4009 22.974 7.28656 22.724C6.76906 22.679 6.32 23.095 6.28062 23.646C6.24125 24.196 6.62844 24.676 7.14406 24.718C7.7675 24.769 8.43313 24.8 9.125 24.8C12.2956 24.8 15.9941 24.137 18.5544 21.606C20.5888 19.595 21.62 16.7 21.62 13.001C21.62 3.902 24.8356 1.905 24.8516 1.896C25.2416 1.687 25.4459 1.219 25.3438 0.767Z" fill="white"></path></svg><svg viewBox="0 0 30 30" fill="none" id="icon-more"><line x1="15" x2="15" y2="30" stroke="#D3D3D3" stroke-width="2"></line><line x1="30" y1="15" y2="15" stroke="#D3D3D3" stroke-width="2"></line></svg><svg viewBox="0 0 16 16" fill="none" id="icon-phone"><path d="M7 8H15.5M15.5 8L13 5.5M15.5 8L13 10.5M5.5 0.5V5.5H2.5V10.5H5.5V15.5H3C1.5 15.5 0.5 14.5 0.5 13V3C0.5 1.5 1.5 0.5 3 0.5H5.5Z" stroke="black" stroke-linecap="round" stroke-linejoin="round"></path></svg><svg viewBox="0 0 26 29" fill="none" id="icon-powder"><path d="M10.875 0C9.24375 0 7.975 1.35938 7.975 3.08125C7.975 4.80312 9.24375 6.1625 10.875 6.1625C12.5063 6.1625 13.775 4.80312 13.775 3.08125C13.775 1.35938 12.5063 0 10.875 0ZM10.875 1.17812C11.8719 1.17812 12.5969 2.02094 12.5969 3.08125C12.5969 4.07812 11.8084 4.98438 10.875 4.98438C9.87813 4.98438 9.15313 4.14156 9.15313 3.08125C9.15313 2.08437 9.9325 1.17812 10.875 1.17812ZM0 24.7406C0 25.9188 0.407813 26.9156 1.35938 27.7313C2.35625 28.5831 3.53438 28.5106 3.53438 28.5106H22.5656C23.345 28.5106 24.3781 28.13 25.1938 27.0606C26.0366 26.0638 25.9822 24.7044 25.9822 24.7044V7.48563C25.9822 7.05063 25.8734 6.8875 25.2391 6.8875C24.6047 6.8875 24.5503 7.15938 24.5503 7.47656V24.6953C24.5322 24.9944 24.4778 25.7828 23.8072 26.4172C23.0731 27.0425 22.3572 26.9609 22.3572 26.9609C22.3572 26.9609 4.23219 26.9609 3.32594 26.9338C2.98156 26.8703 2.41969 26.7434 1.87594 26.0275C1.36844 25.3025 1.46813 24.3962 1.46813 24.3962V7.1775C1.46813 6.71531 1.2325 6.54313 0.743125 6.54313C0.25375 6.54313 0 6.71531 0 7.12313V24.7406ZM16.3125 8.42813C15.225 8.66375 14.1375 8.80875 12.0531 10.7844C9.96875 12.7781 8.42813 12.6875 6.8875 12.5969C5.34688 12.5063 3.71563 11.0563 3.44375 10.6938C3.10844 10.3403 2.5375 10.5759 2.35625 10.8116C2.20219 11.0472 2.20219 11.455 2.465 11.8084C3.73375 12.9866 4.91188 13.8928 7.1775 14.0741C9.44313 14.2916 11.6181 13.2675 13.0681 11.8084C14.5181 10.3584 15.2431 10.0866 16.3306 9.90531C18.9588 9.48844 20.4994 10.5216 21.4056 11.1741C22.4025 12.2616 22.6744 11.9534 22.9463 11.6453C23.49 10.9294 22.7197 10.3766 21.8588 9.74219C20.0463 8.56406 18.3244 8.11094 16.3306 8.47344L16.3125 8.42813ZM7.25 15.5875C6.07188 15.5875 5.16563 16.5844 5.16563 17.8531C5.16563 19.1219 6.07188 20.1188 7.25 20.1188C8.42813 20.1188 9.33438 19.1219 9.33438 17.8531C9.33438 16.5844 8.42813 15.5875 7.25 15.5875ZM19.0313 16.3669C17.4906 16.3669 16.2219 17.7263 16.2219 19.3575C16.2219 20.9887 17.4906 22.3481 19.0313 22.3481C20.5719 22.3481 21.8406 20.9887 21.8406 19.3575C21.8406 17.7263 20.5719 16.3669 19.0313 16.3669ZM19.0313 17.8169C19.8288 17.8169 20.4813 18.5147 20.4813 19.3575C20.4813 20.2184 19.8288 20.8981 19.0313 20.8981C18.2338 20.8981 17.5813 20.2003 17.5813 19.3575C17.5813 18.4966 18.2338 17.8169 19.0313 17.8169Z" fill="white"></path></svg><svg viewBox="0 0 24 18" fill="none" id="icon-slider-toggle"><path d="M8 0L0 9L8 18V0Z" fill="#666666"></path><path d="M24 9L16 0V18L24 9Z" fill="#666666"></path></svg><svg viewBox="0 0 21 18" fill="none" id="icon-telegram"><path fill-rule="evenodd" clip-rule="evenodd" d="M19.9608 0.152905C20.1393 0.302216 20.2255 0.534898 20.1872 0.764481L17.5611 16.5214C17.5244 16.7411 17.3789 16.9273 17.1745 17.0159C16.97 17.1045 16.7346 17.0833 16.5493 16.9597L8.67082 11.7074C8.51771 11.6054 8.41447 11.4437 8.38624 11.2619C8.358 11.08 8.40738 10.8947 8.52233 10.751L11.133 7.48773L6.77303 10.3944C6.577 10.525 6.32597 10.5407 6.11524 10.4353L0.862931 7.80915C0.627693 7.69153 0.485347 7.44488 0.5012 7.18235C0.517052 6.91983 0.688044 6.6921 0.935726 6.60364L19.3188 0.0382579C19.538 -0.0400244 19.7822 0.00359465 19.9608 0.152905ZM2.82626 7.32275L6.36168 9.09046L13.9231 4.0495C14.1925 3.86994 14.5525 3.91349 14.7712 4.1521C14.99 4.3907 15.0022 4.75314 14.8 5.00591L9.99502 11.0121L16.4328 15.3039L18.7083 1.65058L2.82626 7.32275Z" fill="#666666"></path></svg><svg viewBox="0 0 26 31" fill="none" id="icon-time"><path d="M5.53799 0C4.47504 0 4.47504 1.5831 5.53799 1.5831H12.1815V3.18731C5.37855 3.62002 0 9.41417 0 16.4854C0 20.4959 1.74325 24.1159 4.4963 26.5539C4.97463 26.976 5.03841 27.7254 4.60259 28.1897L3.07194 29.7412C2.32787 30.4272 3.43334 31.4931 4.10301 30.7438L6.10136 28.7069C6.45214 28.3692 6.97298 28.2847 7.4088 28.4958C9.12736 29.3397 11.0169 29.784 12.9341 29.795C14.8513 29.8059 16.7459 29.3833 18.4742 28.5591C18.8993 28.348 19.4308 28.4325 19.771 28.7702L21.7055 30.7438C22.3858 31.377 23.3638 30.4272 22.7472 29.7412L21.3016 28.2636C20.8552 27.8098 20.919 27.0605 21.4079 26.6277C22.8584 25.3585 24.0186 23.7959 24.8106 22.0447C25.6026 20.2936 26.0081 18.3944 25.9999 16.4748C25.9999 9.40362 20.5894 3.59891 13.7759 3.18731V1.5831H20.4194C21.4823 1.5831 21.4823 0 20.4194 0H5.53799ZM1.43499 16.4748C1.43499 9.94187 6.61158 4.65431 12.9999 4.65431C19.3777 4.65431 24.5543 9.94187 24.5543 16.4748C24.5543 23.0183 19.3777 28.3164 12.9999 28.3164C6.62221 28.3164 1.43499 23.0183 1.43499 16.4748ZM12.1921 8.37988C12.1921 7.28226 13.8503 7.28226 13.8503 8.37988V17.0131C13.8503 17.237 13.7607 17.4517 13.6012 17.6101C13.4418 17.7684 13.2255 17.8574 12.9999 17.8574C12.7875 17.8574 12.5836 17.7743 12.4324 17.6262C12.2812 17.478 12.1949 17.2767 12.1921 17.0658V8.37988ZM7.21746 10.9973C7.52475 10.9973 7.81945 10.8761 8.03673 10.6603C8.25402 10.4446 8.37608 10.152 8.37608 9.84688C8.37608 9.54178 8.25402 9.24918 8.03673 9.03344C7.81945 8.8177 7.52475 8.6965 7.21746 8.6965C6.93069 8.72386 6.66447 8.85633 6.47075 9.06805C6.27702 9.27977 6.16969 9.55556 6.16969 9.84161C6.16969 10.1277 6.27702 10.4034 6.47075 10.6152C6.66447 10.8269 6.93069 10.9593 7.21746 10.9867V10.9973ZM18.7718 10.9973C19.0791 10.9973 19.3738 10.8761 19.5911 10.6603C19.8083 10.4446 19.9304 10.152 19.9304 9.84688C19.9304 9.54178 19.8083 9.24918 19.5911 9.03344C19.3738 8.8177 19.0791 8.6965 18.7718 8.6965C18.485 8.72386 18.2188 8.85633 18.0251 9.06805C17.8313 9.27977 17.724 9.55556 17.724 9.84161C17.724 10.1277 17.8313 10.4034 18.0251 10.6152C18.2188 10.8269 18.485 10.9593 18.7718 10.9867V10.9973ZM8.37608 23.5882C8.37608 25.1185 6.05884 25.1185 6.05884 23.5882C6.05884 22.0579 8.37608 22.0579 8.37608 23.5882ZM12.9999 27.0288C13.1607 27.0441 13.3229 27.0259 13.4762 26.9754C13.6294 26.9248 13.7703 26.843 13.8899 26.7352C14.0094 26.6273 14.1049 26.4959 14.1703 26.3493C14.2356 26.2026 14.2694 26.044 14.2694 25.8837C14.2694 25.7233 14.2356 25.5648 14.1703 25.4181C14.1049 25.2715 14.0094 25.14 13.8899 25.0322C13.7703 24.9244 13.6294 24.8426 13.4762 24.792C13.3229 24.7414 13.1607 24.7232 12.9999 24.7386C12.7132 24.7659 12.4469 24.8984 12.2532 25.1101C12.0595 25.3219 11.9522 25.5976 11.9522 25.8837C11.9522 26.1697 12.0595 26.4455 12.2532 26.6572C12.4469 26.869 12.7132 27.0014 12.9999 27.0288ZM4.91085 16.6437C4.9263 16.8033 4.90797 16.9643 4.85704 17.1165C4.80611 17.2687 4.72371 17.4086 4.61511 17.5273C4.50651 17.646 4.37413 17.7408 4.22644 17.8057C4.07876 17.8706 3.91904 17.9041 3.75755 17.9041C3.59605 17.9041 3.43633 17.8706 3.28865 17.8057C3.14097 17.7408 3.00858 17.646 2.89998 17.5273C2.79138 17.4086 2.70898 17.2687 2.65805 17.1165C2.60712 16.9643 2.58879 16.8033 2.60424 16.6437C2.6318 16.3589 2.76522 16.0946 2.97845 15.9023C3.19169 15.7099 3.46945 15.6033 3.75755 15.6033C4.04564 15.6033 4.3234 15.7099 4.53664 15.9023C4.74987 16.0946 4.88329 16.3589 4.91085 16.6437ZM22.237 17.794C22.3978 17.8094 22.56 17.7912 22.7132 17.7406C22.8665 17.6901 23.0074 17.6082 23.127 17.5004C23.2465 17.3926 23.342 17.2611 23.4074 17.1145C23.4727 16.9679 23.5065 16.8093 23.5065 16.6489C23.5065 16.4886 23.4727 16.33 23.4074 16.1834C23.342 16.0367 23.2465 15.9053 23.127 15.7975C23.0074 15.6896 22.8665 15.6078 22.7132 15.5573C22.56 15.5067 22.3978 15.4885 22.237 15.5038C21.9502 15.5312 21.684 15.6637 21.4903 15.8754C21.2966 16.0871 21.1892 16.3629 21.1892 16.6489C21.1892 16.935 21.2966 17.2108 21.4903 17.4225C21.684 17.6342 21.9502 17.7667 22.237 17.794ZM19.9304 23.5987C19.9304 25.1185 17.6132 25.1185 17.6132 23.5882C17.6132 22.0579 19.9304 22.0579 19.9304 23.5882V23.5987Z" fill="white"></path></svg><svg viewBox="0 0 28 17" fill="none" id="icon-vk"><path d="M0.5 2.33876C0.5 1.48373 1.0151 1.02268 2.04531 0.955621L6.01515 0.980769C6.28158 0.980769 6.45921 1.10651 6.54802 1.35799C6.95655 2.61538 7.41392 3.70094 7.92014 4.61465C8.42637 5.52835 9.08801 6.58038 9.90507 7.77071C9.97611 7.9216 10.0916 7.99704 10.2514 7.99704C10.3758 7.99704 10.4735 7.93836 10.5445 7.82101L10.6244 7.54438L10.6511 3.19379C10.6511 2.89201 10.5756 2.69083 10.4246 2.59024C10.2736 2.48965 9.99388 2.4142 9.58535 2.36391C9.26563 2.31361 9.10577 2.12919 9.10577 1.81065C9.10577 1.74359 9.11465 1.69329 9.13241 1.65976C9.50542 0.57002 10.5711 0.0251479 12.3296 0.0251479L13.8216 0C14.4966 0 15.0561 0.15927 15.5001 0.477811C15.9442 0.796351 16.1662 1.29931 16.1662 1.98669V7.69527C16.2906 7.77909 16.406 7.82101 16.5126 7.82101C16.779 7.82101 17.0099 7.67012 17.2053 7.36834C19.1592 4.78649 20.216 3.05966 20.3759 2.18787C20.3759 2.1711 20.3936 2.12919 20.4291 2.06213C20.5535 1.81065 20.7577 1.5927 21.0419 1.40828C21.3261 1.22387 21.5748 1.09813 21.788 1.03107C21.859 0.997535 21.9389 0.980769 22.0277 0.980769H26.1574L26.4239 1.00592C26.7791 1.00592 27.0544 1.16519 27.2498 1.48373C27.3209 1.58432 27.3697 1.69329 27.3964 1.81065C27.423 1.92801 27.4408 2.04536 27.4496 2.16272C27.4585 2.28008 27.463 2.34714 27.463 2.36391V2.53994C27.3386 3.22732 27.0233 3.9608 26.5171 4.74038C26.0109 5.51997 25.367 6.36243 24.5855 7.26775C23.804 8.17308 23.3155 8.76825 23.1201 9.05326C22.9603 9.25444 22.8803 9.43886 22.8803 9.60651C22.8803 9.74063 22.9514 9.89152 23.0935 10.0592L26.9834 14.6864C27.1965 14.9546 27.3031 15.248 27.3031 15.5666C27.3031 15.9522 27.1432 16.2707 26.8235 16.5222C26.5038 16.7737 26.1219 16.9162 25.6779 16.9497L25.2249 16.9749H21.1752C21.1574 16.9749 21.1219 16.979 21.0686 16.9874C21.0153 16.9958 20.9798 17 20.962 17C20.5712 17 20.2071 16.8407 19.8696 16.5222C19.7453 16.3881 18.9105 15.3989 17.3652 13.5547C17.2764 13.4374 17.152 13.3284 16.9922 13.2278C16.9211 13.4961 16.8279 13.8817 16.7124 14.3846C16.597 14.8876 16.5126 15.248 16.4593 15.466L16.3794 15.8935C16.2018 16.4803 15.8287 16.8323 15.2604 16.9497L14.8874 16.9749H12.2763C10.8021 16.9749 9.33224 16.3378 7.86686 15.0636C6.40148 13.7894 5.08264 12.1423 3.91034 10.122C2.73803 8.10182 1.64566 5.75049 0.633216 3.06805C0.544405 2.8501 0.5 2.607 0.5 2.33876ZM16.5126 8.85207C16.1396 8.85207 15.8021 8.75567 15.5001 8.56287C15.1982 8.37007 15.0472 8.10602 15.0472 7.77071V1.98669C15.0472 1.65138 14.9584 1.41248 14.7808 1.26997C14.6032 1.12747 14.2923 1.05621 13.8483 1.05621L12.3296 1.10651C11.5658 1.10651 10.9886 1.23225 10.5978 1.48373C11.3793 1.8358 11.7701 2.40582 11.7701 3.19379V7.61982C11.7346 8.03895 11.5569 8.38683 11.2372 8.66346C10.9175 8.94009 10.5623 9.0784 10.1715 9.0784C9.63863 9.0784 9.2301 8.83531 8.94591 8.34911C7.56046 6.37081 6.53025 4.4931 5.85529 2.71598L5.6155 2.06213L2.07195 2.03698C1.84104 2.03698 1.71227 2.04956 1.68562 2.0747C1.65898 2.09985 1.64566 2.1711 1.64566 2.28846C1.64566 2.43935 1.66342 2.59862 1.69895 2.76627L2.25845 4.17456C3.75048 7.81262 5.37127 10.6795 7.12085 12.7751C8.87042 14.8708 10.5889 15.9186 12.2763 15.9186H14.9406C15.0472 15.9186 15.1271 15.8893 15.1804 15.8306C15.2337 15.7719 15.2781 15.6588 15.3136 15.4911L15.3669 15.2396L15.8732 13.0266C16.0152 12.7249 16.1396 12.5237 16.2462 12.4231C16.4415 12.2387 16.6725 12.1465 16.9389 12.1465C17.3652 12.1465 17.8003 12.3895 18.2444 12.8757L20.5091 15.5917C20.6512 15.8097 20.8022 15.9186 20.962 15.9186H25.3581C25.891 15.9186 26.1574 15.7929 26.1574 15.5414C26.1574 15.4576 26.1308 15.3738 26.0775 15.2899L22.2142 10.7382C21.9123 10.3861 21.7613 10.0089 21.7613 9.60651C21.7613 9.20414 21.9034 8.81854 22.1876 8.4497C22.4185 8.1144 22.867 7.55695 23.5331 6.77737C24.1992 5.99778 24.7809 5.26849 25.2782 4.5895C25.7756 3.9105 26.1042 3.29438 26.264 2.74112L26.3439 2.4142C26.3262 2.38067 26.3173 2.32618 26.3173 2.25074C26.3173 2.1753 26.3084 2.11243 26.2907 2.06213H22.1077C21.8412 2.16272 21.6281 2.31361 21.4682 2.51479L21.3084 2.9926C20.8643 4.14941 19.7009 5.93491 17.8181 8.34911C17.4451 8.68442 17.0099 8.85207 16.5126 8.85207Z" fill="#666666"></path></svg><svg viewBox="0 0 25 19" fill="none" id="icon-youtube"><path d="M16.3509 8.79275L11.1145 5.30184C11.0159 5.23691 10.9016 5.19985 10.7837 5.19459C10.6657 5.18934 10.5486 5.21608 10.4446 5.27198C10.3406 5.32789 10.2537 5.41087 10.193 5.51215C10.1324 5.61343 10.1002 5.72924 10.1 5.84729V12.8291C10.1001 12.9481 10.1327 13.0648 10.1942 13.1667C10.2557 13.2686 10.3438 13.3518 10.4491 13.4073C10.5524 13.4631 10.6691 13.4895 10.7864 13.4837C10.9037 13.478 11.0172 13.4402 11.1145 13.3746L16.3509 9.88366C16.4409 9.82395 16.5148 9.7429 16.5658 9.64772C16.6169 9.55255 16.6436 9.44621 16.6436 9.3382C16.6436 9.23019 16.6169 9.12385 16.5658 9.02868C16.5148 8.93351 16.4409 8.85245 16.3509 8.79275ZM11.4091 11.6073V7.06911L14.8127 9.3382L11.4091 11.6073ZM23.8891 3.04366C23.7942 2.67547 23.6131 2.33511 23.3609 2.05061C23.1086 1.76611 22.7924 1.54561 22.4382 1.40729C18.7182 -0.0217993 12.7509 1.91553e-05 12.5 1.91553e-05C12.2491 1.91553e-05 6.28182 -0.0217993 2.56182 1.40729C2.20764 1.54561 1.8914 1.76611 1.63914 2.05061C1.38689 2.33511 1.20584 2.67547 1.11091 3.04366C0.827273 4.11275 0.5 6.07638 0.5 9.3382C0.5 12.6 0.827273 14.5637 1.11091 15.6327C1.20584 16.0009 1.38689 16.3413 1.63914 16.6258C1.8914 16.9103 2.20764 17.1308 2.56182 17.2691C6.28182 18.6982 12.2491 18.6764 12.5 18.6764H12.5764C13.3291 18.6764 18.8927 18.6327 22.4382 17.2691C22.7924 17.1308 23.1086 16.9103 23.3609 16.6258C23.6131 16.3413 23.7942 16.0009 23.8891 15.6327C24.1727 14.5637 24.5 12.6 24.5 9.3382C24.5 6.07638 24.1727 4.11275 23.8891 3.04366ZM22.6236 15.3055C22.5807 15.472 22.499 15.6259 22.3853 15.7548C22.2715 15.8838 22.1289 15.984 21.9691 16.0473C18.4782 17.3891 12.5655 17.3673 12.5 17.3673C12.4345 17.3673 6.52182 17.3891 3.03091 16.0473C2.87107 15.984 2.72846 15.8838 2.61471 15.7548C2.50096 15.6259 2.41929 15.472 2.37636 15.3055C2.11455 14.3018 1.80909 12.4582 1.80909 9.3382C1.80909 6.2182 2.11455 4.37457 2.37636 3.37093C2.41929 3.20445 2.50096 3.05047 2.61471 2.92156C2.72846 2.79264 2.87107 2.69243 3.03091 2.62911C6.52182 1.28729 12.4345 1.30911 12.5 1.30911C12.5655 1.30911 18.4782 1.28729 21.9691 2.62911C22.1289 2.69243 22.2715 2.79264 22.3853 2.92156C22.499 3.05047 22.5807 3.20445 22.6236 3.37093C22.8855 4.37457 23.1909 6.2182 23.1909 9.3382C23.1909 12.4582 22.8855 14.3018 22.6236 15.3055Z" fill="#666666"></path></svg><svg viewBox="0 0 71 60" fill="none" id="primary-trademark"><path d="M25.93 28C25.93 28 22.12 26.56 20.72 26.17C20.0626 25.8824 19.3367 25.7889 18.6279 25.9005C17.9192 26.0122 17.2571 26.3243 16.72 26.8C16.172 27.2798 15.7338 27.8721 15.4353 28.5364C15.1368 29.2008 14.9849 29.9217 14.99 30.65C15.2014 31.1148 15.3623 31.6009 15.47 32.1C15.52 32.58 14.27 32.53 13.47 32.53C12.67 32.53 12.55 31.09 13.18 29.4C13.6715 28.1005 14.2807 26.8486 15 25.66C9.55 28.5 0 35.06 0 35.06C2.73169 34.8953 5.47264 34.9756 8.19 35.3C13.44 35.83 13.19 39.97 13.19 39.97C15.0366 39.4609 16.9184 39.0899 18.82 38.86C20.94 38.72 21.09 40.98 21.09 40.98L21.62 44.84C22.4248 43.9693 23.3123 43.1789 24.27 42.48C25.5045 41.4918 27.0763 41.0253 28.65 41.18V41.18L25.93 28Z" fill="#F06351"></path><path d="M59.88 24C58.1561 19.8695 55.3798 16.263 51.8279 13.5398C48.2759 10.8166 44.0723 9.07178 39.6359 8.47931C35.1995 7.88684 30.6853 8.46738 26.5432 10.1631C22.4011 11.8588 18.7757 14.6104 16.0283 18.1437C13.281 21.677 11.5076 25.8687 10.8849 30.3009C10.2622 34.7332 10.8119 39.2512 12.4794 43.4048C14.1468 47.5583 16.8736 51.2024 20.3881 53.9738C23.9026 56.7452 28.0821 58.5471 32.51 59.2C31.93 57.11 31.34 54.8 30.82 52.35C32.3328 53.3313 33.925 54.1843 35.58 54.9V54.9C35.58 54.9 35.7 57.06 35.86 59.47C37.6482 59.5008 39.4348 59.3433 41.19 59C41.1447 58.7487 41.1447 58.4913 41.19 58.24C41.48 56.37 42.28 53 42.44 50.83C43.5933 49.7513 44.5717 48.4996 45.34 47.12V47.12L45.28 47.56C44.73 51.82 43.58 56.37 42.88 57.63C42.6534 58.0471 42.3745 58.4335 42.05 58.78C45.6698 57.9308 49.0616 56.3046 51.9903 54.014C54.9189 51.7234 57.3144 48.8232 59.0106 45.5146C60.7067 42.2059 61.663 38.568 61.8132 34.853C61.9633 31.1379 61.3037 27.4347 59.88 24V24ZM58.41 27.79C57.97 28.22 57.06 28.51 56.91 27.21C56.76 25.91 56.72 25 56.72 25C56.72 25 54.79 21.57 54.07 21.53C53.35 21.49 48.24 25 46.89 26.53C45.72 27.82 45.49 27.73 45.49 30C45.49 31.71 45.71 38.17 45.59 43.11L37.44 45.28C34.8783 46.0152 32.2733 46.5896 29.64 47L28.64 41.17H28.5L25.93 28C25.93 28 22.12 26.56 20.72 26.17C20.0626 25.8824 19.3367 25.7889 18.6279 25.9005C17.9192 26.0122 17.2571 26.3243 16.72 26.8C16.172 27.2798 15.7338 27.872 15.4353 28.5364C15.1368 29.2008 14.9849 29.9217 14.99 30.65C15.2014 31.1148 15.3623 31.6009 15.47 32.1C15.52 32.58 14.27 32.53 13.47 32.53C12.67 32.53 12.55 31.09 13.18 29.4C13.6715 28.1005 14.2807 26.8486 15 25.66C15.541 24.5982 16.2388 23.624 17.07 22.77C17.07 22.77 17.21 22.43 18.32 22.53C19.43 22.63 25.6 22.96 25.6 22.96L25.65 20.69C32.3564 19.764 39.1201 19.3162 45.89 19.35C45.89 19.96 45.89 20.57 45.89 21.18C48.4543 20.0098 51.2154 19.3314 54.03 19.18C54.1806 19.1762 54.3298 19.2098 54.4642 19.2779C54.5986 19.346 54.714 19.4463 54.8 19.57C55.14 20 57.21 22.57 57.45 22.94C58.1222 23.9007 58.7334 24.9027 59.28 25.94C59.0927 26.5968 58.7987 27.2184 58.41 27.78V27.79Z" fill="#FDC305"></path><path d="M56.46 21.67C56.93 22.27 57.34 22.8 57.46 22.96C58.1322 23.9207 58.7434 24.9227 59.29 25.96C59.0997 26.5953 58.8094 27.1961 58.43 27.74C57.99 28.17 57.08 28.46 56.93 27.16C56.78 25.86 56.72 25 56.72 25C56.72 25 54.79 21.57 54.07 21.53C53.35 21.49 48.24 25 46.89 26.53C45.72 27.82 45.49 27.73 45.49 30C45.49 31.5 45.66 36.65 45.62 41.23C47.43 41.43 50.09 41.93 50.89 43.11C50.89 43.11 50.6 35.93 58.7 39.69C58.7 39.69 58.98 29.9 70.16 32.41C66.3594 27.9478 61.7004 24.2955 56.46 21.67V21.67Z" fill="#F06351"></path><path d="M45.93 19.35C45.9707 13.8088 45.502 8.27549 44.53 2.82001C44.53 2.82001 44.38 1.52001 43.66 2.58001C43.0659 3.84723 42.6615 5.19501 42.46 6.58001C38.1852 6.30572 33.8943 6.41952 29.64 6.92001C28.82 4.17001 27.42 2.92001 26.75 3.25001C26.08 3.58001 26 6.53001 26 6.53001L25.67 20.69C32.383 19.7631 39.1534 19.3153 45.93 19.35V19.35Z" fill="#F06351"></path><path d="M45.35 47.12C45.48 46.05 45.55 44.63 45.59 43.06L37.44 45.23C34.8794 45.982 32.2744 46.5732 29.64 47L30.75 52C30.75 52.11 30.75 52.22 30.82 52.33C32.3328 53.3113 33.925 54.1643 35.58 54.88C37.9987 53.7238 40.3023 52.341 42.46 50.75V50.81C43.6081 49.7366 44.583 48.4918 45.35 47.12V47.12Z" fill="#E55645"></path><path d="M32 16.22C31.95 16.12 33 16.9 33.41 17.14C33.82 17.38 34.02 17.56 34.02 17.73C34.02 17.9 33.76 18.07 33.4 18.07C33.04 18.07 32.48 17.95 32.4 17.81C32.32 17.67 33 17.81 33.34 17.81H33.63C33.0143 17.3596 32.4656 16.8243 32 16.22Z" fill="black"></path><path d="M39.5 16.33C39.5 16.33 38.5 17.61 38.41 17.67C38.32 17.73 38.24 18.01 38.6 17.96C39.0133 17.8983 39.4212 17.8047 39.82 17.68C39.93 17.62 39.89 17.48 39.7 17.5C39.51 17.52 39.02 17.55 38.7 17.61L39.55 16.34C39.55 16.34 39.58 16.22 39.5 16.33Z" fill="black"></path><path d="M36.36 22.44C36.8235 22.2358 37.2067 21.8843 37.45 21.44C37.73 20.78 37.45 20.53 37.01 20.44C36.4047 20.3296 35.7799 20.4509 35.26 20.78C34.87 21.15 34.92 21.51 35.26 21.78C35.5978 22.0449 35.9673 22.2666 36.36 22.44V22.44Z" fill="black"></path><path d="M36 23.7C35.8852 23.9268 35.7292 24.1303 35.54 24.3C35.2552 24.5291 34.9051 24.6622 34.54 24.68C33.9894 24.7341 33.4389 24.5768 33 24.24C32.7984 24.1221 32.619 23.9698 32.47 23.79C32.37 23.6811 32.247 23.5957 32.11 23.54C32.11 23.54 32.86 27.65 34.68 28.31C36.5 28.97 36.84 27.55 36.89 27.17C36.9509 26.0319 36.665 24.9021 36.07 23.93C36.07 23.63 36.05 23.83 36 23.7Z" fill="#F06351"></path><path d="M34.3 24.84C33.832 24.7727 33.3825 24.6113 32.9786 24.3656C32.5747 24.1198 32.2248 23.7947 31.95 23.41C31.9254 23.3825 31.9118 23.3469 31.9118 23.31C31.9118 23.2731 31.9254 23.2375 31.95 23.21C31.963 23.1967 31.9786 23.1861 31.9958 23.1789C32.0129 23.1717 32.0314 23.168 32.05 23.168C32.0686 23.168 32.0871 23.1717 32.1042 23.1789C32.1214 23.1861 32.137 23.1967 32.15 23.21C32.3975 23.5572 32.7114 23.8517 33.0736 24.0766C33.4358 24.3015 33.8391 24.4522 34.26 24.52C34.593 24.495 34.9153 24.3913 35.2004 24.2174C35.4855 24.0436 35.7253 23.8046 35.9 23.52L36.04 23.33L36.14 23.55C36.14 23.55 36.52 24.31 37.14 24.35C37.76 24.39 38.2 23.93 38.77 23.06C38.7912 23.0282 38.8242 23.0061 38.8617 22.9986C38.8992 22.9911 38.9382 22.9988 38.97 23.02C39.0018 23.0412 39.0239 23.0742 39.0314 23.1117C39.0389 23.1492 39.0312 23.1882 39.01 23.22C38.3433 24.2 37.7133 24.67 37.12 24.63C36.8907 24.5996 36.6711 24.5183 36.4772 24.392C36.2834 24.2656 36.1204 24.0975 36 23.9C35.8043 24.1732 35.5502 24.3994 35.2561 24.562C34.9621 24.7246 34.6354 24.8196 34.3 24.84Z" fill="black"></path><path d="M36.26 38.3C38.3311 38.3 40.01 36.6211 40.01 34.55C40.01 32.4789 38.3311 30.8 36.26 30.8C34.1889 30.8 32.51 32.4789 32.51 34.55C32.51 36.6211 34.1889 38.3 36.26 38.3Z" fill="#FDC305"></path><path d="M41.23 31.5L38.1 32.81L39.25 27.18L31.75 36.94L34.88 35.63L33.73 41.27L41.23 31.5ZM33.84 35.33L38 29.92L37.19 33.92L39.19 33.1L35 38.52L35.81 34.52L33.84 35.33Z" fill="#111111"></path><path d="M32.44 33.86C33.0586 33.86 33.56 33.3586 33.56 32.74C33.56 32.1214 33.0586 31.62 32.44 31.62C31.8214 31.62 31.32 32.1214 31.32 32.74C31.32 33.3586 31.8214 33.86 32.44 33.86Z" fill="#111111"></path><path d="M38.96 37.92C39.3963 37.92 39.75 37.5663 39.75 37.13C39.75 36.6937 39.3963 36.34 38.96 36.34C38.5237 36.34 38.17 36.6937 38.17 37.13C38.17 37.5663 38.5237 37.92 38.96 37.92Z" fill="#111111"></path><path d="M39.92 35.75C40.1133 35.75 40.27 35.5933 40.27 35.4C40.27 35.2067 40.1133 35.05 39.92 35.05C39.7267 35.05 39.57 35.2067 39.57 35.4C39.57 35.5933 39.7267 35.75 39.92 35.75Z" fill="#111111"></path><path d="M45.88 21.16C44.0749 22.7873 42.3748 24.5274 40.79 26.37C39.2114 28.1993 37.43 29.8432 35.48 31.27C35.26 30.74 33.85 29.75 33.85 29.75C33.85 29.75 30.71 27.6 28.65 25.91C27.5364 24.9825 26.4873 23.9802 25.51 22.91L23.51 22.8C26.397 27.0172 30.6266 30.1329 35.51 31.64C36.37 31.5 38.79 29.77 40.6 28.36C42.7414 26.5389 44.7467 24.5636 46.6 22.45C47.0981 21.858 47.4844 21.1803 47.74 20.45C46.6 20.83 45.88 21.16 45.88 21.16Z" fill="#F06351"></path><path d="M65.22 3.5L56.76 12.94L55.54 10.95L63.69 0L65.22 3.5Z" fill="#FDC305"></path><path d="M62.65 17.26L68.19 13.15L67.41 9.41L62.01 14.22L62.65 17.26Z" fill="#FDC305"></path><path d="M59.92 49.37L66.05 52.55L69.06 50.21L62.37 47.46L59.92 49.37Z" fill="#FDC305"></path><path d="M1.95 5.97L5.02 2.61L14.31 11.61L13.09 13.89L1.95 5.97Z" fill="#FDC305"></path><path d="M7.38 16.28L2.68 13.15L0.280001 17.02L5.43 19.42L7.38 16.28Z" fill="#FDC305"></path><path d="M13.91 52.55L9.36 55.9L12.16 59.48L16.18 55.46L13.91 52.55Z" fill="#FDC305"></path></svg><svg viewBox="0 0 34 38" fill="none" id="secondary-trademark"><g clip-path="url(#secondary-trademark_0)"><path d="M6.07 20.72V18.46C12.7536 17.5423 19.4937 17.0979 26.24 17.13C26.24 17.73 26.24 18.34 26.18 18.95C28.0976 18.099 30.1128 17.4877 32.18 17.13C30.8625 13.722 28.4618 10.8412 25.3471 8.93087C22.2325 7.02052 18.5764 6.1864 14.9414 6.55683C11.3064 6.92727 7.89379 8.48172 5.22852 10.9811C2.56325 13.4804 0.792971 16.7863 0.190002 20.39L6.07 20.72Z" fill="#FDC305"></path><path d="M27.24 24.23C26.08 25.51 25.85 25.43 25.85 27.68C25.85 28.59 25.85 32.58 25.85 36.86C28.1425 35.346 30.0245 33.2879 31.328 30.8694C32.6315 28.4509 33.3158 25.7474 33.32 23C33.3068 21.9591 33.1997 20.9216 33 19.9C30.9282 21.1295 28.9968 22.5814 27.24 24.23Z" fill="#FDC305"></path><path d="M6.36 25.72C6.36 25.72 2.57 24.28 1.17 23.89C0.787067 23.7693 0.396097 23.6757 0 23.61C0.108395 26.496 0.965588 29.3041 2.48739 31.7586C4.00919 34.2131 6.14326 36.2296 8.68 37.61L6.36 25.72Z" fill="#FDC305"></path><path d="M26.29 17.12C26.3307 11.5986 25.862 6.08528 24.89 0.65C24.89 0.65 24.75 -0.64 24 0.41C23.4109 1.65814 23.0067 2.98539 22.8 4.35C18.5418 4.07577 14.2675 4.18957 10.03 4.69C9.24 2 7.85 0.75 7.18 1C6.51 1.25 6.46 4.31 6.46 4.31L6.13 18.41C12.8113 17.506 19.548 17.0749 26.29 17.12Z" fill="#F06351"></path><path d="M12.41 14C12.41 13.91 13.41 14.68 13.82 14.92C14.23 15.16 14.43 15.34 14.43 15.51C14.43 15.68 14.16 15.85 13.8 15.85C13.44 15.85 12.89 15.73 12.8 15.58H13.74H14.03C13.4207 15.1294 12.8757 14.5978 12.41 14Z" fill="black"></path><path d="M19.89 14.11L18.8 15.44C18.8 15.5 18.63 15.79 18.98 15.74C19.3942 15.6783 19.8023 15.5812 20.2 15.45C20.31 15.45 20.27 15.26 20.09 15.28C19.91 15.3 19.4 15.33 19.09 15.39L19.93 14.13C19.93 14.13 20 14 19.89 14.11Z" fill="black"></path><path d="M16.75 20.2C17.2135 19.9958 17.5967 19.6443 17.84 19.2C18.12 18.55 17.84 18.29 17.4 18.2C16.7979 18.0902 16.1765 18.2116 15.66 18.54C15.27 18.9 15.32 19.26 15.61 19.54C15.9613 19.8062 16.3442 20.0279 16.75 20.2Z" fill="black"></path><path d="M16.35 21.45C16.2379 21.6785 16.0816 21.8825 15.89 22.05C15.6052 22.2791 15.2551 22.4122 14.89 22.43C14.3638 22.472 13.8406 22.3189 13.42 22C13.2222 21.8808 13.0436 21.7324 12.89 21.56C12.7895 21.4491 12.6669 21.3605 12.53 21.3C12.53 21.3 13.28 25.4 15.1 26.05C16.92 26.7 17.24 25.3 17.3 24.92C17.3601 23.7851 17.0742 22.6588 16.48 21.69C16.46 21.38 16.45 21.58 16.35 21.45Z" fill="#F06351"></path><path d="M14.71 22.59C14.2453 22.5247 13.7989 22.3651 13.3982 22.1209C12.9975 21.8767 12.651 21.5531 12.38 21.17C12.3667 21.157 12.3561 21.1414 12.3489 21.1242C12.3417 21.1071 12.338 21.0886 12.338 21.07C12.338 21.0514 12.3417 21.0329 12.3489 21.0158C12.3561 20.9986 12.3667 20.983 12.38 20.97C12.393 20.9567 12.4086 20.9461 12.4258 20.9389C12.4429 20.9317 12.4614 20.928 12.48 20.928C12.4986 20.928 12.5171 20.9317 12.5342 20.9389C12.5514 20.9461 12.567 20.9567 12.58 20.97C13.0848 21.6642 13.843 22.1313 14.69 22.27C15.0217 22.245 15.3426 22.1413 15.6261 21.9674C15.9096 21.7934 16.1475 21.5544 16.32 21.27L16.46 21.08L16.56 21.29C16.56 21.29 16.93 22.05 17.56 22.09C18.19 22.13 18.61 21.68 19.17 20.81C19.183 20.7967 19.1986 20.7861 19.2158 20.7789C19.2329 20.7717 19.2514 20.768 19.27 20.768C19.2886 20.768 19.3071 20.7717 19.3242 20.7789C19.3414 20.7861 19.357 20.7967 19.37 20.81C19.4023 20.8306 19.4255 20.8629 19.4348 20.9C19.4441 20.9372 19.4388 20.9766 19.42 21.01C18.78 22.01 18.15 22.45 17.54 22.41C17.308 22.3763 17.0867 22.2904 16.8927 22.1587C16.6987 22.0271 16.5371 21.8531 16.42 21.65C16.2233 21.9245 15.9676 22.1514 15.6717 22.3141C15.3758 22.4767 15.0472 22.571 14.71 22.59Z" fill="black"></path><path d="M26.24 18.92C24.4445 20.5437 22.7512 22.277 21.17 24.11C19.5987 25.9361 17.8238 27.5768 15.88 29C15.66 28.47 14.26 27.49 14.26 27.49C14.26 27.49 11.13 25.35 9.08001 23.67C7.97415 22.7373 6.92871 21.7353 5.95001 20.67L3.95001 20.56C6.84019 24.7655 11.0702 27.8676 15.95 29.36C16.81 29.22 19.22 27.5 21.02 26.1C23.1389 24.2819 25.124 22.3134 26.96 20.21C27.4625 19.621 27.8493 18.9425 28.1 18.21C27 18.6 26.24 18.92 26.24 18.92Z" fill="#F06351"></path></g><defs><clipPath id="secondary-trademark_0"><rect width="33.32" height="37.61" fill="white"></rect></clipPath></defs></svg></svg>